PathFileType	4	(X/Y/Z)	SUBJ94_3_walk_RCNL2025.trc
DataRate	CameraRate	NumFrames	NumMarkers	Units	OrigDataRate	OrigDataStartFrame	OrigNumFrames
100	100	12	25	mm	100	47	368
Frame#	Time	R_Shoulder			L_Shoulder			C7			J_Notch			R_Elbow			L_Elbow			R_Wrist			L_Wrist			R_Asis			L_Asis			Sacral			Thoracic			Sternum			R_Thigh_Lateral			R_Knee_Lateral			R_Shank_Lateral			R_Ankle_Lateral			R_Heel			R_Toe			L_Thigh_Lateral			L_Knee_Lateral			L_Shank_Lateral			L_Ankle_Lateral			L_Heel			L_Toe		
		X1	Y1	Z1	X2	Y2	Z2	X3	Y3	Z3	X4	Y4	Z4	X5	Y5	Z5	X6	Y6	Z6	X7	Y7	Z7	X8	Y8	Z8	X9	Y9	Z9	X10	Y10	Z10	X11	Y11	Z11	X12	Y12	Z12	X13	Y13	Z13	X14	Y14	Z14	X15	Y15	Z15	X16	Y16	Z16	X17	Y17	Z17	X18	Y18	Z18	X19	Y19	Z19	X20	Y20	Z20	X21	Y21	Z21	X22	Y22	Z22	X23	Y23	Z23	X24	Y24	Z24	X25	Y25	Z25
47	0.46000000	-2180.406738	1242.588135	418.201416	-2222.315186	1244.702026	40.502384	-2268.077148	1325.546143	239.088593	-2153.834717	1232.919189	224.921585	-2133.521973	970.684204	515.682068	-2337.817871	976.730713	-5.085704	-1971.023987	816.989716	486.997849	-2280.104980	756.678894	-53.072432	-2170.935303	854.081604	357.971985	-2157.150879	847.650146	133.348099	-2352.641602	907.178284	218.555542	-2340.247559	1126.862305	237.443817	-2126.898926	1039.046631	235.141403	-2300.748779	517.764587	409.754730	-2330.690918	428.277466	347.897705	-2386.447998	247.406403	377.354492	-2433.130615	50.185905	285.670227	-2476.355957	56.024113	237.378433	-2301.039551	26.972113	253.719955	-2115.858154	518.698914	36.868687	-2077.031738	435.566132	93.364899	-2049.864258	259.512360	30.536531	-2008.731934	56.486908	132.050064	-2039.134888	39.021523	186.140762	-1884.686890	72.083580	141.257675
48	0.47000000	-2168.825928	1241.816528	417.318542	-2210.855957	1243.129272	39.702835	-2256.474121	1324.367554	238.169556	-2142.161133	1231.574829	224.340012	-2119.909424	970.671631	515.551086	-2328.318359	975.901184	-5.106154	-1955.501465	819.395294	485.527969	-2273.445312	755.330414	-54.152763	-2160.015869	853.040771	358.254700	-2144.789795	846.459290	133.595032	-2340.918701	905.721741	217.332809	-2328.651611	1125.737061	236.706543	-2115.360352	1037.682739	235.016571	-2292.785645	517.508057	409.976318	-2323.206055	428.156616	348.119049	-2382.085693	248.040817	377.434570	-2432.552246	51.613583	285.794403	-2475.783691	58.274929	237.621994	-2300.655029	26.881472	253.790604	-2105.918457	516.219788	37.152496	-2065.764160	433.769928	93.978622	-2032.144653	258.642975	30.921265	-1984.243042	55.986340	132.297241	-2014.943970	37.429108	185.903992	-1860.433228	75.672165	143.400497
49	0.48000000	-2157.215332	1241.167603	416.366302	-2199.312500	1241.674561	38.804581	-2244.823975	1323.290649	237.143707	-2130.403564	1230.383301	223.648468	-2106.666016	970.744507	515.415405	-2318.562500	975.126587	-5.218534	-1940.549561	821.703003	484.159454	-2266.321655	754.114197	-55.269024	-2148.864990	852.064575	358.484619	-2132.234131	845.410583	133.801270	-2328.984375	904.403503	216.125443	-2316.923340	1124.677246	235.897430	-2103.644287	1036.479492	234.760132	-2284.380859	517.291687	410.221252	-2315.223633	428.024994	348.427094	-2377.328369	248.774506	377.625458	-2431.852783	53.251213	286.088440	-2475.103027	60.844177	238.084381	-2300.254150	26.746799	253.857071	-2095.499512	514.040405	37.504704	-2054.401855	432.084991	94.634262	-2015.375488	257.881317	31.458441	-1962.621948	55.659828	132.740051	-1993.729248	36.221893	185.838394	-1839.160156	78.465637	145.827820
50	0.49000000	-2145.577637	1240.659546	415.347473	-2187.681396	1240.354614	37.810085	-2233.125732	1322.334717	236.011276	-2118.563965	1229.367676	222.847504	-2093.809570	970.910400	515.274536	-2308.534668	974.417114	-5.428827	-1926.183594	823.898132	482.905457	-2258.708130	753.032928	-56.420143	-2137.476562	851.166870	358.656158	-2119.488281	844.534119	133.963959	-2316.842041	903.244385	214.953125	-2305.064697	1123.701782	235.021027	-2091.748535	1035.462036	234.374954	-2275.483398	517.112183	410.492767	-2306.682129	427.874573	348.831482	-2372.141357	249.628815	377.937622	-2430.991455	55.135067	286.558807	-2474.249756	63.784622	238.766830	-2299.851074	26.549843	253.905823	-2084.503906	512.245178	37.930717	-2042.920166	430.556641	95.321136	-1999.630127	257.177887	32.139591	-1943.944946	55.375179	133.375839	-1975.551636	35.292912	185.959900	-1820.891602	80.267509	148.471573
51	0.50000000	-2133.916260	1240.308350	414.266144	-2175.959473	1239.183960	36.723934	-2221.379883	1321.516724	234.774124	-2106.645996	1228.547729	221.940430	-2081.353516	971.175415	515.126526	-2298.219727	973.781433	-5.742382	-1912.416199	825.965454	481.778275	-2250.580566	752.088135	-57.604923	-2125.850342	850.361023	358.762787	-2106.559326	843.857605	134.078690	-2304.500244	902.262268	213.835693	-2293.080322	1122.828857	234.082458	-2079.673340	1034.652832	233.867508	-2266.043213	516.962219	410.794525	-2297.519043	427.694946	349.340057	-2366.487305	250.626083	378.376648	-2429.916504	57.307297	287.202972	-2473.141357	67.154274	239.658157	-2299.463623	26.274443	253.921646	-2072.877930	510.896301	38.425827	-2031.316895	429.219574	96.021973	-1984.957642	256.489319	32.944252	-1928.184937	55.027092	134.185257	-1960.366821	34.556255	186.266449	-1805.549805	80.948578	151.252502
52	0.51000000	-2122.237061	1240.127563	413.127869	-2164.144531	1238.174805	35.552906	-2209.587402	1320.851685	233.435913	-2094.655273	1227.939941	220.933334	-2069.307617	971.544495	514.968323	-2287.604980	973.226624	-6.163711	-1899.256531	827.889343	480.788879	-2241.916748	751.280121	-58.822018	-2113.990479	849.659546	358.797516	-2093.458252	843.405396	134.139709	-2291.972412	901.471619	212.792297	-2280.977295	1122.074707	233.087418	-2067.422852	1034.070679	233.247665	-2256.010742	516.830139	411.130371	-2287.670166	427.473328	349.958740	-2360.324219	251.788559	378.942657	-2428.565430	59.815796	288.009247	-2471.677979	71.014626	240.734879	-2299.110840	25.910128	253.889893	-2060.617676	510.030457	38.974411	-2019.610229	428.097382	96.713707	-1971.373901	255.782791	33.841034	-1915.214844	54.543667	135.132584	-1948.030640	33.951149	186.736862	-1792.962402	80.457031	154.084656
53	0.52000000	-2110.546387	1240.127563	411.939636	-2152.235107	1237.336792	34.305939	-2197.750000	1320.351807	232.002228	-2082.598389	1227.556641	219.834946	-2057.677002	972.020691	514.795959	-2276.679199	972.758240	-6.696318	-1886.710205	829.654297	479.946976	-2232.696289	750.608337	-60.069914	-2101.908691	849.073486	358.753357	-2080.199463	843.197266	134.140427	-2279.277588	900.883423	211.840500	-2268.765381	1121.453613	232.042053	-2055.004395	1033.729492	232.528641	-2245.337646	516.700378	411.504486	-2277.072021	427.195465	350.690918	-2353.604980	253.137161	379.630493	-2426.863770	62.713425	288.957336	-2469.744141	75.428001	241.962341	-2298.810303	25.456234	253.799438	-2047.768677	509.657715	39.550362	-2007.837280	427.202881	97.368851	-1958.857666	255.039001	34.789841	-1904.819336	53.888851	136.168137	-1938.312012	33.442482	187.332047	-1782.876831	78.821220	156.880356
54	0.53000000	-2098.852539	1240.315796	410.709839	-2140.230469	1236.676758	32.994072	-2185.870605	1320.026001	230.480591	-2070.483643	1227.405396	218.656570	-2046.462402	972.605347	514.604858	-2265.433594	972.380066	-7.342531	-1874.779358	831.244904	479.260696	-2222.901489	750.071259	-61.346876	-2089.622070	848.612244	358.624268	-2066.801514	843.247742	134.073898	-2266.438965	900.504883	210.995316	-2256.456299	1120.978271	230.952927	-2042.430786	1033.638306	231.726639	-2233.977783	516.553894	411.921112	-2265.664795	426.846313	351.537292	-2346.275391	254.690277	380.430176	-2424.726562	66.056404	290.019775	-2467.211670	80.453918	243.296890	-2298.571777	24.926039	253.646194	-2034.421875	509.762299	40.118763	-1996.050537	426.538696	97.957367	-1947.349976	254.253387	35.744965	-1896.713745	53.060783	137.232437	-1930.912842	33.017899	187.998627	-1774.982056	76.144966	159.555588
55	0.54000000	-2087.165039	1240.695679	409.448303	-2128.131836	1236.198853	31.630230	-2173.953125	1319.880737	228.880386	-2058.320801	1227.488770	217.411789	-2035.659790	973.297974	514.390137	-2253.862305	972.094177	-8.103374	-1863.462280	832.646484	478.736588	-2212.517334	749.666595	-62.650917	-2077.155273	848.283081	358.405548	-2053.287598	843.564758	133.933502	-2253.484619	900.339294	210.268356	-2244.063965	1120.658203	229.826935	-2029.718994	1033.799805	230.860550	-2221.889404	516.369141	412.384430	-2253.393066	426.411560	352.495544	-2338.274902	256.462341	381.327728	-2422.058838	69.901695	291.163879	-2463.945801	86.144615	244.688919	-2298.391602	24.350342	253.436386	-2020.706177	510.305695	40.638744	-1984.314209	426.098602	98.448914	-1936.759399	253.435165	36.658791	-1890.567383	52.086498	138.261841	-1925.490967	32.682205	188.674606	-1768.933838	72.595955	162.035294
56	0.55000000	-2075.494385	1241.267090	408.165894	-2115.940674	1235.904297	30.228975	-2162.001953	1319.918579	227.212875	-2046.120239	1227.804199	216.116135	-2025.260742	974.095764	514.147217	-2241.962402	971.900757	-8.978457	-1852.753479	833.845490	478.379440	-2201.531128	749.391571	-63.979719	-2064.538818	848.090942	358.094788	-2039.684448	844.149170	133.713638	-2240.446045	900.385864	209.667084	-2231.604248	1120.500854	228.671188	-2016.890991	1034.210693	229.951447	-2209.037842	516.124207	412.898041	-2240.210205	425.879333	353.560425	-2329.537109	258.462738	382.306305	-2418.758545	74.303322	292.353943	-2459.809814	92.539818	246.086182	-2298.243652	23.779760	253.189392	-2006.777832	511.230804	41.067207	-1972.700684	425.868713	98.815201	-1926.971558	252.604599	37.485649	-1886.030029	51.013962	139.194901	-1921.686401	32.450150	189.296143	-1764.380371	68.388794	164.257965
57	0.56000000	-2063.851562	1242.026001	406.874573	-2103.660400	1235.791382	28.806152	-2150.021973	1320.139038	225.490906	-2033.893433	1228.343872	214.786774	-2015.253052	974.994141	513.871887	-2229.733398	971.798279	-9.965915	-1842.643860	834.829651	478.192429	-2189.934082	749.242920	-65.330578	-2051.808838	848.038513	357.692169	-2026.023438	844.994141	133.410385	-2227.357178	900.640076	209.194122	-2219.094238	1120.510620	227.492874	-2003.972900	1034.861328	229.022003	-2195.397705	515.798645	413.464508	-2226.079590	425.241974	354.723450	-2319.991211	260.694946	383.347107	-2414.718262	79.307610	293.553833	-2454.672363	99.661072	247.437485	-2298.072998	23.285053	252.939255	-1992.809326	512.467285	41.362957	-1961.286133	425.829041	99.032295	-1917.863037	251.788666	38.185421	-1882.755981	49.902752	139.978470	-1919.144653	32.338886	189.804764	-1760.987305	63.764835	166.179352
58	0.57000000	-2052.248535	1242.964233	405.587036	-2091.295410	1235.855713	27.378468	-2138.019043	1320.538574	223.728775	-2021.652466	1229.095093	213.442001	-2005.621094	975.986145	513.560852	-2217.179199	971.783569	-11.062365	-1833.120911	835.588715	478.176926	-2177.720581	749.217072	-66.700304	-2039.005005	848.126038	357.201050	-2012.339966	846.084839	133.022095	-2214.254395	901.093567	208.847031	-2206.552490	1120.689209	226.299103	-1990.994507	1035.736084	228.095749	-2180.955811	515.375977	414.084595	-2210.978271	424.498108	355.973206	-2309.564697	263.155853	384.430695	-2409.828857	84.947647	294.729248	-2448.413330	107.506004	248.695847	-2297.785889	22.954870	252.734497	-1978.976562	513.937317	41.490837	-1950.147949	425.954773	99.082596	-1909.316284	251.016144	38.726402	-1880.426025	48.814770	140.572937	-1917.538086	32.361343	190.153763	-1758.456421	58.971081	167.774734
